Coordinates
version=1
nRows=14
nColumns=24
inDegrees=yes

Units are S.I. units (second, meters, Newtons, ...)
Angles are in degrees.

endheader
time	pelvis_tilt	pelvis_list	pelvis_rotation	pelvis_tx	pelvis_ty	pelvis_tz	hip_flexion_r	hip_adduction_r	hip_rotation_r	knee_angle_r	ankle_angle_r	subtalar_angle_r	mtp_angle_r	hip_flexion_l	hip_adduction_l	hip_rotation_l	knee_angle_l	ankle_angle_l	subtalar_angle_l	mtp_angle_l	lumbar_extension	lumbar_bending	lumbar_rotation
      2.89000000	     16.05991150	     -1.20562265	     -2.15088213	     -0.25417298	      0.96045520	     -0.02050959	      3.37118660	     -4.59043972	     -7.56011312	    -22.83654846	     19.96273642	      6.88236903	     28.09972486	    -26.46970906	      1.20991410	     -5.37548865	      3.59469495	     11.73512102	     15.90393982	      6.62943487	    -27.62883571	     -0.04558864	      0.59354295
      2.89500000	     16.16594033	     -1.20316165	     -1.99573084	     -0.24999154	      0.96021036	     -0.02008036	      3.01787927	     -4.42902302	     -7.46783050	    -20.53340957	     19.52956486	      6.90918315	     29.29947845	    -26.81805938	      1.11658354	     -5.50878085	      3.50430500	     12.03970765	     16.38729527	      6.44768887	    -27.75278872	     -0.00234100	      0.47344632
      2.90000000	     16.29954656	     -1.15354380	     -1.80272667	     -0.24573657	      0.95994887	     -0.01978742	      2.60571302	     -4.34094660	     -7.46025393	    -18.23794124	     19.26835705	      7.23033878	     29.41722497	    -27.24664295	      1.06170162	     -5.43083239	      3.53035739	     12.17419010	     16.49688931	      6.42723855	    -27.89562355	      0.02092361	      0.30279415
      2.90500000	     16.43124494	     -1.09960223	     -1.62836205	     -0.24145775	      0.95965580	     -0.01938368	      2.16916902	     -4.24208965	     -7.38374453	    -15.91713495	     18.90496578	      7.50513530	     29.61371186	    -27.65378016	      1.01189301	     -5.48994244	      3.50826986	     12.37091153	     16.83089685	      6.40895207	    -28.03238195	      0.02609359	      0.14869420
      2.91000000	     16.56505143	     -1.00937199	     -1.50419235	     -0.23717652	      0.95932144	     -0.01888582	      1.72588433	     -4.17963875	     -7.21901192	    -13.61135653	     18.43762310	      7.75562228	     30.05810433	    -28.05620498	      1.01693772	     -5.63533924	      3.46475050	     12.55470704	     17.27462970	      6.33689189	    -28.16791225	     -0.02625154	      0.04728880
      2.91500000	     16.64902871	     -0.91815666	     -1.30736320	     -0.23280008	      0.95886815	     -0.01850181	      1.30783887	     -4.12533853	     -7.15194719	    -11.34674751	     18.02441435	      8.05774171	     30.33746123	    -28.41158105	      0.98752554	     -5.64063959	      3.43634794	     12.78596407	     17.53365731	      6.29977038	    -28.23785784	     -0.03877996	     -0.14612510
      2.92000000	     16.73761878	     -0.77837455	     -1.20144980	     -0.22847413	      0.95837849	     -0.01794554	      0.89097711	     -4.11448286	     -6.90108526	     -9.08985241	     17.22692225	      7.99035652	     33.72886680	    -28.75892135	      1.04298908	     -5.79040807	      3.37251849	     13.05288028	     17.97481265	      5.52687206	    -28.31692210	     -0.14389561	     -0.24918360
      2.92500000	     16.83255454	     -0.61888136	     -1.04182456	     -0.22403862	      0.95784867	     -0.01751839	      0.47823783	     -4.15014744	     -6.82854008	     -7.00723912	     16.77701266	      8.37346376	     33.76087530	    -29.13137508	      1.09553786	     -5.82398518	      3.34834488	     13.22825235	     18.27578470	      5.52823486	    -28.38860623	     -0.23319310	     -0.42411124
      2.93000000	     16.92454668	     -0.43277551	     -0.92001906	     -0.21960413	      0.95727093	     -0.01702692	      0.09409421	     -4.21783700	     -6.71351462	     -5.04792955	     16.29372358	      8.67513648	     33.86347215	    -29.49778233	      1.18942569	     -5.90486897	      3.31301594	     13.40243394	     18.61279146	      5.52650471	    -28.45702312	     -0.36447021	     -0.56805911
      2.93500000	     17.00702617	     -0.23106016	     -0.81370102	     -0.21513972	      0.95664860	     -0.01651187	     -0.25364528	     -4.30797453	     -6.61130672	     -3.23227845	     15.81028063	      8.94527976	     34.04916845	    -29.85490631	      1.30355488	     -5.99412390	      3.27352472	     13.57606430	     18.95650450	      5.51840495	    -28.51049167	     -0.51420314	     -0.70393989
      2.94000000	     17.08692126	     -0.01851426	     -0.71202340	     -0.21066111	      0.95600096	     -0.01599629	     -0.56587970	     -4.41594959	     -6.55353665	     -1.58189317	     15.34452782	      9.20487224	     34.28517784	    -30.20485751	      1.42859450	     -6.07528208	      3.22141535	     13.74805025	     19.27616533	      5.51021703	    -28.55995140	     -0.67187631	     -0.83600240
      2.94500000	     17.16502130	      0.19907555	     -0.62058868	     -0.20615955	      0.95533946	     -0.01546496	     -0.84115720	     -4.53298985	     -6.53561703	     -0.10520979	     14.90767051	      9.44619568	     34.56793638	    -30.55197247	      1.56100428	     -6.15968353	      3.16220396	     13.91494665	     19.58818160	      5.50344560	    -28.60491448	     -0.83469591	     -0.95661174
      2.95000000	     17.20753005	      0.40691389	     -0.55829822	     -0.20164378	      0.95462921	     -0.01487907	     -1.04507080	     -4.63824718	     -6.48936411	      1.23083322	     14.26095594	      9.39927647	     37.33805532	    -30.84689734	      1.69477140	     -6.29930944	      3.06281841	     14.13254054	     19.95373515	      5.23160932	    -28.60835513	     -0.99553947	     -1.02474875
      2.95500000	     17.31742751	      0.63580944	     -0.46725199	     -0.19710350	      0.95399709	     -0.01436720	     -1.28312818	     -4.77507221	     -6.57864477	      2.32982352	     13.97804567	      9.65921480	     37.36196079	    -31.23322470	      1.83546387	     -6.32042416	      3.00609400	     14.25727029	     20.15643505	      5.24992056	    -28.68372015	     -1.15907819	     -1.15515836
